<svg width="63" height="62" viewBox="0 0 63 62" fill="none" xmlns="http://www.w3.org/2000/svg">
<path d="M4 31C4 15.8122 16.3122 3.5 31.5 3.5C46.6878 3.5 59 15.8122 59 31C59 46.1878 46.6878 58.5 31.5 58.5C16.3122 58.5 4 46.1878 4 31Z" fill="#FEF9C3"/>
<path d="M4 31C4 15.8122 16.3122 3.5 31.5 3.5C46.6878 3.5 59 15.8122 59 31C59 46.1878 46.6878 58.5 31.5 58.5C16.3122 58.5 4 46.1878 4 31Z" stroke="#FEFCE8" stroke-width="7"/>
<path d="M42.0406 37.5L33.374 22.3333C33.185 21.9999 32.911 21.7225 32.5798 21.5296C32.2487 21.3366 31.8722 21.2349 31.489 21.2349C31.1057 21.2349 30.7293 21.3366 30.3981 21.5296C30.067 21.7225 29.7929 21.9999 29.604 22.3333L20.9373 37.5C20.7463 37.8308 20.6461 38.2062 20.647 38.5882C20.6478 38.9702 20.7496 39.3452 20.9421 39.6751C21.1346 40.0051 21.4109 40.2783 21.743 40.4671C22.0751 40.6558 22.4512 40.7534 22.8331 40.75H40.1665C40.5466 40.7496 40.92 40.6492 41.249 40.4589C41.5781 40.2686 41.8513 39.995 42.0412 39.6657C42.2311 39.3364 42.331 38.9629 42.3309 38.5828C42.3308 38.2026 42.2307 37.8292 42.0406 37.5Z" stroke="#854D0E" stroke-linecap="round" stroke-linejoin="round"/>
<path d="M31.5 27.75V32.0833" stroke="#854D0E" stroke-linecap="round" stroke-linejoin="round"/>
<path d="M31.5 36.4167H31.5108" stroke="#854D0E" stroke-linecap="round" stroke-linejoin="round"/>
</svg>
